<svg width="80" height="80" viewBox="0 0 80 80" fill="none" xmlns="http://www.w3.org/2000/svg">
<circle cx="40" cy="40" r="39" fill="white" stroke="white" stroke-width="2"/>
<path fill-rule="evenodd" clip-rule="evenodd" d="M65 40.5C65 26.9703 54.0297 16 40.5 16C26.9703 16 16 26.9703 16 40.5C16 52.7281 24.9578 62.8639 36.6719 64.7036V47.5842H30.4495V40.5H36.6719V35.1023C36.6719 28.9631 40.3305 25.5692 45.9261 25.5692C48.6069 25.5692 51.4113 26.0483 51.4113 26.0483V32.0781H48.3203C45.2786 32.0781 44.327 33.9659 44.327 35.9063V40.5H51.1214L50.0364 47.5842H44.3281V64.7058C56.0422 62.8672 65 52.7314 65 40.5Z" fill="#0D2F81"/>
</svg>
