<svg width="80" height="80" viewBox="0 0 80 80" fill="none" xmlns="http://www.w3.org/2000/svg">
<circle cx="40" cy="40" r="39" fill="white" stroke="white" stroke-width="2"/>
<path d="M49.9996 19.9996C52.6496 20.0076 55.1887 21.0637 57.0625 22.9375C58.9363 24.8113 59.9924 27.3504 60.0004 30.0004V49.9996C59.9924 52.6496 58.9363 55.1887 57.0625 57.0625C55.1887 58.9363 52.6496 59.9924 49.9996 60.0004H30.0004C27.3504 59.9924 24.8113 58.9363 22.9375 57.0625C21.0637 55.1887 20.0076 52.6496 19.9996 49.9996V30.0004C20.0076 27.3504 21.0637 24.8113 22.9375 22.9375C24.8113 21.0637 27.3504 20.0076 30.0004 19.9996H49.9996V19.9996ZM49.9996 16H30.0004C22.3 16 16 22.3 16 30.0004V49.9996C16 57.7 22.3 64 30.0004 64H49.9996C57.7 64 64 57.7 64 49.9996V30.0004C64 22.3 57.7 16 49.9996 16V16Z" fill="#0D2F81"/>
<path d="M52.9996 30.0002C52.4063 30.0002 51.8263 29.8243 51.3329 29.4947C50.8396 29.165 50.4551 28.6965 50.228 28.1483C50.0009 27.6001 49.9415 26.9969 50.0573 26.415C50.173 25.833 50.4588 25.2985 50.8783 24.8789C51.2979 24.4594 51.8324 24.1736 52.4144 24.0579C52.9963 23.9421 53.5995 24.0015 54.1477 24.2286C54.6959 24.4557 55.1644 24.8402 55.494 25.3335C55.8237 25.8269 55.9996 26.4069 55.9996 27.0002C56.0005 27.3944 55.9235 27.7849 55.773 28.1493C55.6225 28.5137 55.4016 28.8447 55.1229 29.1235C54.8441 29.4022 54.5131 29.6231 54.1487 29.7736C53.7843 29.9241 53.3938 30.0011 52.9996 30.0002V30.0002ZM40 31.9995C41.5823 31.9995 43.1291 32.4687 44.4448 33.3478C45.7604 34.2269 46.7858 35.4764 47.3914 36.9383C47.9969 38.4002 48.1553 40.0088 47.8466 41.5607C47.5379 43.1126 46.776 44.5381 45.6571 45.657C44.5382 46.7759 43.1127 47.5378 41.5608 47.8465C40.0089 48.1552 38.4003 47.9968 36.9384 47.3913C35.4765 46.7857 34.227 45.7603 33.348 44.4447C32.4689 43.129 31.9996 41.5822 31.9996 39.9999C32.0019 37.8788 32.8455 35.8452 34.3454 34.3453C35.8453 32.8454 37.8789 32.0018 40 31.9995V31.9995ZM40 27.9999C37.6266 27.9999 35.3066 28.7037 33.3332 30.0223C31.3598 31.3408 29.8217 33.215 28.9135 35.4077C28.0052 37.6004 27.7676 40.0132 28.2306 42.341C28.6936 44.6687 29.8365 46.8069 31.5147 48.4852C33.193 50.1634 35.3311 51.3063 37.6589 51.7693C39.9867 52.2323 42.3995 51.9947 44.5922 51.0864C46.7849 50.1782 48.6591 48.6401 49.9776 46.6667C51.2962 44.6933 52 42.3733 52 39.9999C52 36.8173 50.7357 33.765 48.4853 31.5146C46.2348 29.2642 43.1826 27.9999 40 27.9999V27.9999Z" fill="#0D2F81"/>
</svg>
