<svg width="80" height="80" viewBox="0 0 80 80" fill="none" xmlns="http://www.w3.org/2000/svg">
<circle cx="40" cy="40" r="39" fill="white" stroke="white" stroke-width="2"/>
<path d="M58.4809 18H21.7596C19.7531 18 18 19.4437 18 21.4267V58.2296C18 60.2233 19.7531 62 21.7596 62H58.4701C60.4874 62 61.9999 60.2115 61.9999 58.2296V21.4267C62.0117 19.4437 60.4874 18 58.4809 18ZM31.639 54.6762H25.3356V35.0775H31.639V54.6762ZM28.7053 32.0977H28.6602C26.6428 32.0977 25.3366 30.596 25.3366 28.7162C25.3366 26.802 26.6772 25.3356 28.7397 25.3356C30.8022 25.3356 32.0643 26.7912 32.1094 28.7162C32.1085 30.596 30.8022 32.0977 28.7053 32.0977ZM54.6761 54.6762H48.3727V43.96C48.3727 41.3927 47.4554 39.6386 45.1749 39.6386C43.4326 39.6386 42.4013 40.8171 41.9426 41.9653C41.7708 42.3778 41.7246 42.9396 41.7246 43.5131V54.6762H35.4212V35.0775H41.7246V37.8049C42.6419 36.4987 44.0749 34.6188 47.4092 34.6188C51.547 34.6188 54.6771 37.3463 54.6771 43.2263L54.6761 54.6762Z" fill="#0D2F81"/>
</svg>
