<svg width="80" height="80" viewBox="0 0 80 80" fill="none" xmlns="http://www.w3.org/2000/svg">
<circle cx="40" cy="40" r="39" fill="white" stroke="white" stroke-width="2"/>
<path d="M64 25.5026C62.1995 26.2768 60.2944 26.7869 58.345 27.0167C60.3937 25.8295 61.9343 23.9436 62.678 21.7125C60.7411 22.8333 58.6256 23.6197 56.422 24.038C55.4941 23.0757 54.3781 22.3101 53.1419 21.7879C51.9057 21.2656 50.5751 20.9976 49.231 21C43.789 21 39.385 25.2948 39.385 30.589C39.3811 31.3255 39.4664 32.0597 39.639 32.776C35.7367 32.595 31.9155 31.6099 28.42 29.8837C24.9244 28.1576 21.8315 25.7284 19.339 22.7516C18.4646 24.2103 18.0021 25.8747 18 27.5708C18 30.8958 19.753 33.8349 22.4 35.5567C20.8317 35.5199 19.2956 35.1092 17.922 34.3594V34.4781C17.922 39.1291 21.322 42.9984 25.822 43.8791C24.9758 44.1023 24.1038 44.2155 23.228 44.2156C22.6066 44.2166 21.9866 44.157 21.377 44.0374C22.628 47.8473 26.269 50.6182 30.582 50.6973C27.0774 53.3701 22.7746 54.8147 18.35 54.8041C17.5646 54.8029 16.78 54.7567 16 54.6655C20.5012 57.5098 25.7334 59.0143 31.074 58.9999C49.21 58.9999 59.118 44.3838 59.118 31.7073C59.118 31.2917 59.107 30.876 59.087 30.4703C61.0101 29.1166 62.6738 27.4344 64 25.5026V25.5026Z" fill="#0D2F81"/>
</svg>
