<svg width="80" height="80" viewBox="0 0 80 80" fill="none" xmlns="http://www.w3.org/2000/svg">
<circle cx="40" cy="40" r="39" fill="white" stroke="white" stroke-width="2"/>
<path d="M63.6916 30.728C63.6916 26.6266 60.5881 23.3272 56.7532 23.3272C51.5588 23.0911 46.2613 23 40.8475 23H39.1597C33.7591 23 28.4521 23.0911 23.2577 23.3281C19.4323 23.3281 16.3287 26.6457 16.3287 30.7472C16.0943 33.991 15.9949 37.2357 16.0006 40.4804C15.9912 43.7251 16.0975 46.9728 16.3194 50.2236C16.3194 54.3251 19.4229 57.6518 23.2484 57.6518C28.7053 57.8979 34.3029 58.0073 39.9942 57.9981C45.6949 58.0164 51.2769 57.9009 56.7401 57.6518C60.5749 57.6518 63.6785 54.3251 63.6785 50.2236C63.9035 46.9698 64.0066 43.7251 63.9972 40.4713C64.0185 37.2266 63.9166 33.9788 63.6916 30.728ZM35.4093 49.4215V31.5119L49.0047 40.4622L35.4093 49.4215Z" fill="#0D2F81"/>
</svg>
